<svg width="161" height="19" viewBox="0 0 161 19" fill="none" xmlns="http://www.w3.org/2000/svg">
<path d="M4.92659 1.08V18H0.222593V1.08H4.92659ZM25.1974 18H20.4934L14.2294 8.544V18H9.5254V1.08H14.2294L20.4934 10.656V1.08H25.1974V18ZM39.805 18L34.501 10.584V18H29.797V1.08H34.501V8.376L39.757 1.08H45.181L38.965 9.288L45.493 18H39.805ZM57.243 18.168C55.659 18.168 54.203 17.8 52.875 17.064C51.547 16.312 50.491 15.28 49.707 13.968C48.939 12.64 48.555 11.144 48.555 9.48C48.555 7.816 48.939 6.328 49.707 5.016C50.491 3.688 51.547 2.656 52.875 1.92C54.203 1.184 55.659 0.816 57.243 0.816C58.843 0.816 60.299 1.184 61.611 1.92C62.939 2.656 63.987 3.688 64.755 5.016C65.523 6.328 65.907 7.816 65.907 9.48C65.907 11.144 65.523 12.64 64.755 13.968C63.987 15.28 62.939 16.312 61.611 17.064C60.283 17.8 58.827 18.168 57.243 18.168ZM57.243 13.8C58.443 13.8 59.387 13.408 60.075 12.624C60.779 11.84 61.131 10.792 61.131 9.48C61.131 8.136 60.779 7.08 60.075 6.312C59.387 5.528 58.443 5.136 57.243 5.136C56.027 5.136 55.075 5.528 54.387 6.312C53.699 7.08 53.355 8.136 53.355 9.48C53.355 10.808 53.699 11.864 54.387 12.648C55.075 13.416 56.027 13.8 57.243 13.8Z" fill="#FF698D"/>
<path d="M89.6937 1.08V18H84.9897V8.664L81.7977 18H77.8617L74.6457 8.592V18H69.9417V1.08H75.6297L79.8777 12.072L84.0297 1.08H89.6937ZM102.403 18.168C100.819 18.168 99.3633 17.8 98.0353 17.064C96.7073 16.312 95.6513 15.28 94.8673 13.968C94.0993 12.64 93.7153 11.144 93.7153 9.48C93.7153 7.816 94.0993 6.328 94.8673 5.016C95.6513 3.688 96.7073 2.656 98.0353 1.92C99.3633 1.184 100.819 0.816 102.403 0.816C104.003 0.816 105.459 1.184 106.771 1.92C108.099 2.656 109.147 3.688 109.915 5.016C110.683 6.328 111.067 7.816 111.067 9.48C111.067 11.144 110.683 12.64 109.915 13.968C109.147 15.28 108.099 16.312 106.771 17.064C105.443 17.8 103.987 18.168 102.403 18.168ZM102.403 13.8C103.603 13.8 104.547 13.408 105.235 12.624C105.939 11.84 106.291 10.792 106.291 9.48C106.291 8.136 105.939 7.08 105.235 6.312C104.547 5.528 103.603 5.136 102.403 5.136C101.187 5.136 100.235 5.528 99.5473 6.312C98.8593 7.08 98.5153 8.136 98.5153 9.48C98.5153 10.808 98.8593 11.864 99.5473 12.648C100.235 13.416 101.187 13.8 102.403 13.8ZM125.11 18L119.806 10.584V18H115.102V1.08H119.806V8.376L125.062 1.08H130.486L124.27 9.288L130.798 18H125.11ZM142.548 18.168C140.964 18.168 139.508 17.8 138.18 17.064C136.852 16.312 135.796 15.28 135.012 13.968C134.244 12.64 133.86 11.144 133.86 9.48C133.86 7.816 134.244 6.328 135.012 5.016C135.796 3.688 136.852 2.656 138.18 1.92C139.508 1.184 140.964 0.816 142.548 0.816C144.148 0.816 145.604 1.184 146.916 1.92C148.244 2.656 149.292 3.688 150.06 5.016C150.828 6.328 151.212 7.816 151.212 9.48C151.212 11.144 150.828 12.64 150.06 13.968C149.292 15.28 148.244 16.312 146.916 17.064C145.588 17.8 144.132 18.168 142.548 18.168ZM142.548 13.8C143.748 13.8 144.692 13.408 145.38 12.624C146.084 11.84 146.436 10.792 146.436 9.48C146.436 8.136 146.084 7.08 145.38 6.312C144.692 5.528 143.748 5.136 142.548 5.136C141.332 5.136 140.38 5.528 139.692 6.312C139.004 7.08 138.66 8.136 138.66 9.48C138.66 10.808 139.004 11.864 139.692 12.648C140.38 13.416 141.332 13.8 142.548 13.8ZM157.527 18.192C156.695 18.192 156.023 17.968 155.511 17.52C155.015 17.056 154.767 16.472 154.767 15.768C154.767 15.064 155.015 14.48 155.511 14.016C156.023 13.552 156.695 13.32 157.527 13.32C158.343 13.32 158.999 13.552 159.495 14.016C160.007 14.48 160.263 15.064 160.263 15.768C160.263 16.456 160.007 17.032 159.495 17.496C158.999 17.96 158.343 18.192 157.527 18.192Z" fill="white"/>
</svg>
